<?xml version="1.0" encoding="utf-8"?>
<!-- Generator: Adobe Illustrator 21.1.0, SVG Export Plug-In . SVG Version: 6.00 Build 0)  -->
<svg version="1.1" id="Layer_1" xmlns="http://www.w3.org/2000/svg" xmlns:xlink="http://www.w3.org/1999/xlink" x="0px" y="0px"
	 viewBox="0 0 233 83" style="enable-background:new 0 0 233 83;" xml:space="preserve">
<style type="text/css">
	.st0{fill:#FFFFFF;stroke:#FFFFFF;stroke-miterlimit:10;}
	.st1{fill:none;stroke:#00D2C1;stroke-width:0.93;stroke-miterlimit:10;}
</style>
<title>Artboard 13 copy-logo</title>
<path class="st0" d="M14.1,46.3l-2.9,23.1H4.1l2.9-23.1H2.4l0.8-6.4h4.6l1.7-13.2c0.4-3.5,1.4-6.1,2.9-7.8c1.7-1.7,4.1-2.6,6.5-2.5
	c2.1,0.1,4.1,0.7,6,1.6l-0.8,6.1c-1-0.9-2.3-1.5-3.7-1.6c-1.1-0.1-2.2,0.4-2.9,1.3c-0.8,1.5-1.2,3.1-1.3,4.7L15,39.8h6.4l-0.8,6.4
	L14.1,46.3z"/>
<path class="st0" d="M36.7,16.4l-6.7,53h-7.1l6.7-53L36.7,16.4z"/>
<path class="st0" d="M65.1,39.8L62.9,57c-0.1,1.3-0.4,2.6-0.6,3.8c-0.2,0.9-0.5,1.8-0.8,2.7c-0.7,1.5-1.7,2.8-3,3.7
	c-2.4,1.8-5.6,2.8-9.5,2.8c-3.7,0-6.7-0.9-8.9-2.8c-2.2-1.9-3.5-4.7-3.3-7.6c0-0.5,0-1,0.1-1.7s0.1-1.4,0.2-2.2l2-16h7.1L44,56.4
	c-0.1,0.7-0.1,1.3-0.2,1.9c0,0.5-0.1,1-0.1,1.3c0,3.1,1.9,4.7,5.6,4.7c1.6,0.1,3.3-0.4,4.5-1.5c1-1,1.6-2.8,1.9-5.4L58,39.8H65.1z"
	/>
<path class="st0" d="M87.8,53.5l10.9,15.9h-8.2l-7.2-11.2L66.2,76.5l-9,0.1l22.6-23.7l-9-13.1h8.1l5.4,8.5l14.3-15.6l8.9,0.2
	L87.8,53.5z"/>
<path class="st1" d="M124.7,41.9l-3.4,27.5h-8.4l3.5-27.5h-5.5l1-7.7h5.5l2-15.7c0.5-4.2,1.7-7.3,3.5-9.2s4.4-2.9,7.8-2.9
	c2.5,0.1,4.9,0.8,7.1,1.9l-0.9,7.2c-1.2-1.1-2.7-1.8-4.4-1.9c-1.3-0.1-2.6,0.5-3.4,1.5c-0.9,1.7-1.4,3.7-1.6,5.6l-1.7,13.4h7.6
	l-1,7.7L124.7,41.9z"/>
<path class="st1" d="M150.9,6.4l-7.9,63h-8.4l7.9-63L150.9,6.4z"/>
<path class="st1" d="M161.1,54.8c-0.1,2.4,0.9,4.8,2.8,6.4c2,1.7,4.5,2.6,7.1,2.5c3.6,0.2,7-1.4,9.1-4.3l6.3,3.4
	c-1.8,2.5-4.1,4.5-6.8,6c-2.8,1.3-5.8,1.9-8.8,1.8c-5.6,0-10-1.6-13.3-4.8s-5-7.5-5-12.9c-0.1-5.2,1.9-10.3,5.5-14.1
	c3.6-3.7,8.6-5.8,13.7-5.6c5.3,0,9.6,1.7,12.6,5.1s4.7,8,4.7,13.7c0,0.6,0,1.6-0.1,2.9L161.1,54.8z M180.5,48.1
	c-0.9-5.4-4-8.1-9.2-8.1c-5,0-8.2,2.7-9.7,8.1H180.5z"/>
<path class="st1" d="M215.5,50.5l13,18.9h-9.8L210.1,56l-11.6,13.4h-10.9l18.3-19.5l-10.7-15.6h9.7l6.4,10.1l8.6-10.1h10.8
	L215.5,50.5z"/>
</svg>
