<svg xmlns="http://www.w3.org/2000/svg" viewBox="0 0 233 83"><title>Artboard 13-logo</title><path d="M10.63,38.22l-2.25,18H2.85l2.28-18H1.53l.63-5h3.6l1.3-10.28q.5-4.1,2.28-6A6.56,6.56,0,0,1,14.41,15a11.39,11.39,0,0,1,4.68,1.25L18.48,21a4.77,4.77,0,0,0-2.85-1.22,2.57,2.57,0,0,0-2.23,1,9.3,9.3,0,0,0-1,3.69l-1.1,8.79h5l-.63,5Z" fill="#1c2b41" stroke="#1c2b41" stroke-miterlimit="10" stroke-width="1.37"/><path d="M28.16,15,23,56.22H17.45L22.65,15Z" fill="#1c2b41" stroke="#1c2b41" stroke-miterlimit="10" stroke-width="1.37"/><path d="M50.27,33.22,48.59,46.6a26.6,26.6,0,0,1-.5,3,14.5,14.5,0,0,1-.65,2.12,7.31,7.31,0,0,1-2.35,2.91,11.79,11.79,0,0,1-7.38,2.15,10.49,10.49,0,0,1-7-2.17,7.31,7.31,0,0,1-2.6-5.89q0-.56.06-1.32t.19-1.73L30,33.22h5.53L33.86,46.14q-.1.83-.15,1.45t-.05,1q0,3.64,4.38,3.64a4.6,4.6,0,0,0,3.5-1.2,7.54,7.54,0,0,0,1.5-4.2l1.73-13.65Z" fill="#1c2b41" stroke="#1c2b41" stroke-miterlimit="10" stroke-width="1.37"/><path d="M68,43.87l8.48,12.36H70l-5.58-8.74L51.13,61.78l-7,.07L61.68,43.43l-7-10.21H61l4.18,6.59L76.33,27.68l6.92.13Z" fill="#1c2b41" stroke="#1c2b41" stroke-miterlimit="10" stroke-width="1.37"/><path d="M93.7,28.6l-.36,2.87a13.8,13.8,0,0,1,8.95-3.54,12.48,12.48,0,0,1,9.31,3.8,13.19,13.19,0,0,1,3.72,9.61,15.05,15.05,0,0,1-4.25,10.86,14,14,0,0,1-10.49,4.38,12.16,12.16,0,0,1-5.26-1A15.28,15.28,0,0,1,90.76,52L88.29,71.6H81.72l5.41-43Zm15,13a8.44,8.44,0,0,0-2.14-6,7.07,7.07,0,0,0-5.47-2.35,8.77,8.77,0,0,0-6.66,2.84,9.83,9.83,0,0,0-2.68,7A7.79,7.79,0,0,0,94.06,49a7.88,7.88,0,0,0,5.83,2.26,8.22,8.22,0,0,0,6.3-2.79A9.9,9.9,0,0,0,108.75,41.61Z" fill="none" stroke="#00d2c1" stroke-miterlimit="10" stroke-width="0.73"/><path d="M129.47,28.27l-.3,2.4q3.4-3.15,6.87-3.15a8.23,8.23,0,0,1,5.53,2.17l-4.28,5.4a5.81,5.81,0,0,0-3.71-1.54,4.94,4.94,0,0,0-2.25.49,4.49,4.49,0,0,0-1.69,1.54,9.41,9.41,0,0,0-1.18,2.71,25.86,25.86,0,0,0-.74,4l-1.76,13.95h-6.72l3.53-28Z" fill="none" stroke="#00d2c1" stroke-miterlimit="10" stroke-width="0.73"/><path d="M151.95,28.31l-3.52,27.91h-6.7l3.52-27.91ZM154,15A3.32,3.32,0,0,1,153,17.5a3.52,3.52,0,0,1-2.55,1,3.57,3.57,0,0,1-2.58-1.07,3.65,3.65,0,0,1-1.06-2.58,3.31,3.31,0,0,1,1-2.46,3.48,3.48,0,0,1,2.52-1,3.52,3.52,0,0,1,2.58,1.1A3.4,3.4,0,0,1,154,15Z" fill="none" stroke="#00d2c1" stroke-miterlimit="10" stroke-width="0.73"/><path d="M166.44,28.5l-.3,2.61A10.94,10.94,0,0,1,174,27.79a7.46,7.46,0,0,1,4.17,1,7.75,7.75,0,0,1,2.62,3.48q4.26-4.43,9.19-4.43,8.52,0,8.52,7.64,0,.77-.14,2.17T198,41.07L196,56.49h-6.72l2.07-16.2a30.72,30.72,0,0,0,.27-3.33q0-3.65-3.77-3.65a7.06,7.06,0,0,0-2.59.43,4.7,4.7,0,0,0-1.87,1.34,7.26,7.26,0,0,0-1.28,2.35,18,18,0,0,0-.78,3.43l-1.95,15.63h-6.72l2.1-16.61a31,31,0,0,0,.27-3.09q0-3.48-3.86-3.48-5.6,0-6.54,7.58l-2,15.6H156l3.53-28Z" fill="none" stroke="#00d2c1" stroke-miterlimit="10" stroke-width="0.73"/><path d="M209.74,44.57a6.41,6.41,0,0,0,2.14,5,8,8,0,0,0,5.53,1.95,8.24,8.24,0,0,0,7.08-3.37l4.91,2.64a15.51,15.51,0,0,1-5.26,4.7,15.25,15.25,0,0,1-6.84,1.37q-6.51,0-10.38-3.75a13.3,13.3,0,0,1-3.86-10,15.2,15.2,0,0,1,4.25-11A14.19,14.19,0,0,1,218,27.7q6.24,0,9.84,3.95t3.66,10.66q0,.7-.09,2.26Zm15.07-5.17q-1-6.33-7.17-6.33-5.8,0-7.55,6.33Z" fill="none" stroke="#00d2c1" stroke-miterlimit="10" stroke-width="0.73"/></svg>