<?xml version="1.0" encoding="utf-8"?>
<!-- Generator: Adobe Illustrator 21.1.0, SVG Export Plug-In . SVG Version: 6.00 Build 0)  -->
<svg version="1.1" id="Layer_1" xmlns="http://www.w3.org/2000/svg" xmlns:xlink="http://www.w3.org/1999/xlink" x="0px" y="0px"
	 viewBox="0 0 233 83" style="enable-background:new 0 0 233 83;" xml:space="preserve">
<style type="text/css">
	.st0{fill:#FFFFFF;stroke:#FFFFFF;stroke-miterlimit:10;}
	.st1{fill:none;stroke:#00D2C1;stroke-width:0.73;stroke-miterlimit:10;}
</style>
<title>Artboard 13-logo</title>
<path class="st0" d="M10.6,38.2l-2.2,18H2.8l2.3-18H1.5l0.6-5h3.6l1.3-10.3c0.3-2.7,1.1-4.7,2.3-6c1.3-1.3,3.2-2.1,5.1-1.9
	c1.6,0.1,3.2,0.5,4.7,1.2L18.5,21c-0.8-0.7-1.8-1.1-2.9-1.2c-0.9-0.1-1.7,0.3-2.2,1c-0.6,1.1-0.9,2.4-1,3.7l-1.1,8.8h5l-0.6,5
	L10.6,38.2z"/>
<path class="st0" d="M28.2,15L23,56.2h-5.5L22.6,15H28.2z"/>
<path class="st0" d="M50.3,33.2l-1.7,13.4c-0.1,1-0.3,2-0.5,3c-0.2,0.7-0.4,1.4-0.7,2.1c-0.5,1.2-1.3,2.2-2.3,2.9
	c-2.2,1.5-4.7,2.3-7.4,2.2c-2.5,0.1-5-0.6-7-2.2C29,53.2,28,51,28.1,48.7c0-0.4,0-0.8,0.1-1.3s0.1-1.1,0.2-1.7L30,33.2h5.5
	l-1.7,12.9c-0.1,0.6-0.1,1-0.2,1.5c0,0.4,0,0.7,0,1c0,2.4,1.5,3.6,4.4,3.6c1.3,0.1,2.6-0.3,3.5-1.2c0.9-1.2,1.4-2.7,1.5-4.2
	l1.7-13.6L50.3,33.2z"/>
<path class="st0" d="M68,43.9l8.5,12.4H70l-5.6-8.7L51.1,61.8l-7,0.1l17.5-18.4l-7-10.2H61l4.2,6.6l11.2-12.1l6.9,0.1L68,43.9z"/>
<path class="st1" d="M93.7,28.6l-0.4,2.9c2.5-2.2,5.6-3.5,8.9-3.5c3.5-0.1,6.9,1.3,9.3,3.8c2.5,2.6,3.8,6,3.7,9.6
	c0.1,4-1.4,8-4.2,10.9c-2.7,2.9-6.5,4.5-10.5,4.4c-1.8,0.1-3.6-0.3-5.3-1c-1.7-0.9-3.3-2.1-4.6-3.6l-2.5,19.6h-6.6l5.4-43L93.7,28.6
	z M108.7,41.6c0.1-2.2-0.7-4.4-2.1-6c-1.4-1.6-3.4-2.4-5.5-2.3c-2.5-0.1-5,1-6.7,2.8c-1.8,1.9-2.7,4.4-2.7,7
	c-0.1,2.2,0.7,4.4,2.3,5.9c1.5,1.5,3.7,2.3,5.8,2.3c2.4,0,4.7-1,6.3-2.8C107.9,46.6,108.8,44.1,108.7,41.6L108.7,41.6z"/>
<path class="st1" d="M129.5,28.3l-0.3,2.4c2.3-2.1,4.6-3.2,6.9-3.1c2,0,4,0.8,5.5,2.2l-4.3,5.4c-1-0.9-2.3-1.5-3.7-1.5
	c-0.8,0-1.5,0.2-2.2,0.5c-0.7,0.4-1.3,0.9-1.7,1.5c-0.5,0.8-0.9,1.8-1.2,2.7c-0.4,1.3-0.6,2.6-0.7,4l-1.8,14h-6.7l3.5-28L129.5,28.3
	z"/>
<path class="st1" d="M151.9,28.3l-3.5,27.9h-6.7l3.5-27.9L151.9,28.3z M154,15c0,0.9-0.3,1.8-1,2.5c-0.7,0.7-1.6,1-2.6,1
	c-1,0-1.9-0.4-2.6-1.1c-0.7-0.7-1.1-1.6-1.1-2.6c0-0.9,0.3-1.8,1-2.5c0.7-0.7,1.6-1,2.5-1c1,0,1.9,0.4,2.6,1.1
	C153.6,13.1,154,14,154,15z"/>
<path class="st1" d="M166.4,28.5l-0.3,2.6c2.1-2.1,4.9-3.3,7.9-3.3c1.5-0.1,2.9,0.3,4.2,1c1.2,0.9,2.1,2.1,2.6,3.5
	c2.8-3,5.9-4.4,9.2-4.4c5.7,0,8.5,2.5,8.5,7.6c0,0.5,0,1.2-0.1,2.2c-0.1,0.9-0.2,2.1-0.4,3.4l-2,15.4h-6.7l2.1-16.2
	c0.2-1.1,0.2-2.2,0.3-3.3c0-2.4-1.3-3.7-3.8-3.7c-0.9,0-1.8,0.1-2.6,0.4c-0.7,0.3-1.4,0.7-1.9,1.3c-0.6,0.7-1,1.5-1.3,2.3
	c-0.4,1.1-0.6,2.3-0.8,3.4l-1.9,15.6h-6.7l2.1-16.6c0.1-1,0.2-2.1,0.3-3.1c0-2.3-1.3-3.5-3.9-3.5c-3.7,0-5.9,2.5-6.5,7.6l-2,15.6
	H156l3.5-28L166.4,28.5z"/>
<path class="st1" d="M209.7,44.6c-0.1,1.9,0.7,3.7,2.1,5c1.5,1.3,3.5,2,5.5,2c2.8,0.1,5.4-1.1,7.1-3.4l4.9,2.6
	c-1.4,1.9-3.2,3.6-5.3,4.7c-2.1,1-4.5,1.4-6.8,1.4c-4.3,0-7.8-1.2-10.4-3.8c-2.6-2.6-4-6.3-3.9-10c-0.1-4.1,1.4-8.1,4.2-11
	c2.8-2.9,6.7-4.5,10.7-4.4c4.2,0,7.4,1.3,9.8,4s3.6,6.2,3.7,10.7c0,0.5,0,1.2-0.1,2.3H209.7z M224.8,39.4c-0.7-4.2-3.1-6.3-7.2-6.3
	c-3.9,0-6.4,2.1-7.6,6.3H224.8z"/>
</svg>
