<?xml version="1.0" encoding="utf-8"?>
<!-- Generator: Adobe Illustrator 21.1.0, SVG Export Plug-In . SVG Version: 6.00 Build 0)  -->
<svg version="1.1" id="Layer_1" xmlns="http://www.w3.org/2000/svg" xmlns:xlink="http://www.w3.org/1999/xlink" x="0px" y="0px"
	 viewBox="0 0 233 83" style="enable-background:new 0 0 233 83;" xml:space="preserve">
<style type="text/css">
	.st0{fill:#FFFFFF;stroke:#FFFFFF;stroke-miterlimit:10;}
	.st1{fill:none;stroke:#00D2C1;stroke-width:0.88;stroke-miterlimit:10;}
</style>
<title>Artboard 13 copy 2-logo</title>
<path class="st0" d="M15.1,40.1l-2.7,21.8H5.7l2.8-21.8H4.1L4.8,34h4.4l1.6-12.5c0.4-3.3,1.3-5.8,2.8-7.3c1.6-1.6,3.9-2.5,6.1-2.3
	c2,0.1,3.9,0.6,5.7,1.5l-0.7,5.7c-1-0.9-2.2-1.4-3.5-1.5c-1-0.1-2.1,0.4-2.7,1.2c-0.7,1.4-1.1,2.9-1.2,4.5L15.9,34h6.1l-0.8,6.1
	H15.1z"/>
<path class="st0" d="M36.3,11.9l-6.3,50h-6.7l6.3-50L36.3,11.9z"/>
<path class="st0" d="M63.1,34l-2,16.2c-0.1,1.2-0.3,2.4-0.6,3.6c-0.2,0.9-0.5,1.7-0.8,2.6c-0.6,1.4-1.6,2.6-2.8,3.5
	c-2.6,1.8-5.8,2.8-8.9,2.6c-3,0.2-6-0.8-8.4-2.6c-2.1-1.8-3.3-4.4-3.2-7.1c0-0.5,0-1,0.1-1.6c0.1-0.6,0.1-1.3,0.2-2.1l1.9-15h6.7
	l-2,15.7c-0.1,0.7-0.1,1.3-0.2,1.8c0,0.5,0,0.9,0,1.3c0,2.9,1.8,4.4,5.3,4.4c1.6,0.1,3.1-0.4,4.2-1.5c0.9-1,1.5-2.7,1.8-5.1L56.4,34
	H63.1z"/>
<path class="st0" d="M84.5,46.9l10.3,15h-7.8l-6.8-10.6L64.1,68.6l-8.5,0.1l21.3-22.3L68.4,34h7.7l5.1,8l13.5-14.7l8.4,0.2
	L84.5,46.9z"/>
<path class="st1" d="M116.1,28.3l-0.4,3.6c3.1-2.7,7-4.3,11.1-4.4c4.3-0.1,8.5,1.6,11.5,4.7c3.1,3.2,4.8,7.5,4.6,11.9
	c0.1,5-1.8,9.9-5.3,13.5c-3.4,3.6-8.1,5.5-13,5.4c-2.2,0.1-4.5-0.3-6.5-1.2c-2.1-1.1-4.1-2.6-5.6-4.4l-3.1,24.3h-8.2l6.7-53.3
	L116.1,28.3z M134.7,44.4c0.1-2.7-0.8-5.4-2.6-7.4c-1.7-1.9-4.2-3-6.8-2.9c-3.2-0.1-6.2,1.2-8.3,3.6c-2.2,2.3-3.4,5.5-3.3,8.7
	c-0.1,2.7,0.9,5.3,2.8,7.2c1.9,1.9,4.5,2.9,7.2,2.8c3,0,5.8-1.2,7.8-3.5C133.6,50.6,134.8,47.6,134.7,44.4L134.7,44.4z"/>
<path class="st1" d="M163.4,1.4l-7.6,60.8h-8.1l7.7-60.8L163.4,1.4z"/>
<path class="st1" d="M199.1,28.3L196.6,48c-0.2,1.5-0.4,2.9-0.7,4.4c-0.3,1.1-0.6,2.1-1,3.1c-0.8,1.7-2,3.2-3.5,4.3
	c-2.7,2.1-6.3,3.2-10.8,3.2c-4.3,0-7.7-1.1-10.2-3.2c-2.5-2.1-4-5.4-3.8-8.7c0-0.6,0-1.2,0.1-1.9s0.2-1.6,0.3-2.6l2.3-18.3h8.1
	l-2.4,19c-0.1,0.8-0.2,1.5-0.2,2.1c0,0.6-0.1,1.1-0.1,1.6c0,3.6,2.2,5.4,6.4,5.4c2.3,0,4.1-0.6,5.2-1.8c1.1-1.2,1.8-3.2,2.2-6.2
	l2.5-20.1H199.1z"/>
<path class="st1" d="M228.9,32l-4.6,4.5c-2.2-1.9-4.2-2.8-6-2.8c-1.1,0-2.2,0.3-3.1,1c-0.8,0.6-1.2,1.6-1.2,2.6c0,0.9,0.3,1.8,1,2.5
	c1.3,1.1,2.8,2.1,4.3,2.8c3.1,1.7,5.2,3.3,6.3,4.7c1.2,1.6,1.8,3.5,1.7,5.4c0.1,3-1.2,5.8-3.4,7.7c-2.6,2-5.8,3-9.1,2.9
	c-5.1,0-9.3-2.2-12.6-6.7l5.3-3.6c2.2,2.6,4.5,3.8,7,3.8c1.2,0.1,2.4-0.3,3.4-1.1c0.8-0.7,1.3-1.7,1.3-2.8c0-0.9-0.4-1.8-1.1-2.4
	c-0.6-0.5-1.2-0.9-1.8-1.3c-0.9-0.6-2-1.2-3.5-2c-2.1-1-3.9-2.4-5.4-4.1c-1-1.5-1.6-3.3-1.5-5.2c-0.1-2.9,1.2-5.7,3.5-7.6
	c2.5-2.1,5.6-3.1,8.8-3C222,27.2,225.7,28.8,228.9,32z"/>
</svg>
