<svg xmlns="http://www.w3.org/2000/svg" viewBox="0 0 233 83"><title>Artboard 13 copy 2-logo</title><path d="M15.08,40.07l-2.73,21.8H5.66l2.76-21.8H4.05L4.81,34H9.17l1.58-12.46q.61-5,2.76-7.31a7.94,7.94,0,0,1,6.15-2.34,13.8,13.8,0,0,1,5.67,1.51l-.73,5.74a5.78,5.78,0,0,0-3.45-1.48,3.11,3.11,0,0,0-2.7,1.21,11.26,11.26,0,0,0-1.24,4.47L15.87,34h6.06l-.76,6.07Z" fill="#1c2b41" stroke="#1c2b41" stroke-miterlimit="10" stroke-width="1.66"/><path d="M36.31,11.9,30,61.87h-6.7l6.3-50Z" fill="#1c2b41" stroke="#1c2b41" stroke-miterlimit="10" stroke-width="1.66"/><path d="M63.1,34l-2,16.21a32.23,32.23,0,0,1-.61,3.61,17.57,17.57,0,0,1-.79,2.57,8.85,8.85,0,0,1-2.85,3.52,14.29,14.29,0,0,1-8.94,2.6,12.71,12.71,0,0,1-8.42-2.63,8.86,8.86,0,0,1-3.15-7.13q0-.68.08-1.6t.23-2.1L38.5,34h6.7l-2,15.65q-.12,1-.18,1.76T43,52.67q0,4.41,5.3,4.41a5.57,5.57,0,0,0,4.24-1.45q1.36-1.45,1.82-5.09L56.43,34Z" fill="#1c2b41" stroke="#1c2b41" stroke-miterlimit="10" stroke-width="1.66"/><path d="M84.54,46.9l10.27,15H87.05L80.3,51.28,64.14,68.61l-8.51.09L76.93,46.37,68.42,34h7.67l5.06,8,13.53-14.7,8.39.16Z" fill="#1c2b41" stroke="#1c2b41" stroke-miterlimit="10" stroke-width="1.66"/><path d="M116.08,28.29l-.44,3.56a17.12,17.12,0,0,1,11.1-4.39,15.47,15.47,0,0,1,11.54,4.72,16.36,16.36,0,0,1,4.61,11.92,18.66,18.66,0,0,1-5.27,13.46,17.33,17.33,0,0,1-13,5.44,15.07,15.07,0,0,1-6.52-1.22,19,19,0,0,1-5.64-4.43L109.37,81.6h-8.15l6.71-53.32Zm18.65,16.13A10.46,10.46,0,0,0,132.08,37a8.76,8.76,0,0,0-6.78-2.92A10.87,10.87,0,0,0,117,37.65a12.19,12.19,0,0,0-3.32,8.68,9.66,9.66,0,0,0,2.8,7.24,9.77,9.77,0,0,0,7.23,2.81,10.19,10.19,0,0,0,7.82-3.46A12.27,12.27,0,0,0,134.74,44.42Z" fill="none" stroke="#00d2c1" stroke-miterlimit="10" stroke-width="0.88"/><path d="M163.44,1.4,155.8,62.2h-8.15l7.67-60.8Z" fill="none" stroke="#00d2c1" stroke-miterlimit="10" stroke-width="0.88"/><path d="M199.1,28.29,196.63,48a39,39,0,0,1-.74,4.39,21.41,21.41,0,0,1-1,3.13,10.79,10.79,0,0,1-3.47,4.28Q187.34,63,180.6,63q-6.41,0-10.25-3.2a10.78,10.78,0,0,1-3.83-8.68q0-.83.09-1.94t.28-2.56l2.29-18.32h8.15l-2.4,19q-.15,1.23-.22,2.14T174.63,51q0,5.36,6.45,5.36,3.5,0,5.16-1.76t2.21-6.19L191,28.29Z" fill="none" stroke="#00d2c1" stroke-miterlimit="10" stroke-width="0.88"/><path d="M228.95,32l-4.61,4.5q-3.24-2.84-6-2.84a4.72,4.72,0,0,0-3.12,1A3.17,3.17,0,0,0,214,37.25a3.33,3.33,0,0,0,1,2.48,20.18,20.18,0,0,0,4.31,2.81q4.68,2.56,6.27,4.68a8.35,8.35,0,0,1,1.7,5.44,9.65,9.65,0,0,1-3.43,7.74,13.87,13.87,0,0,1-9.11,2.88q-7.63,0-12.64-6.73l5.34-3.64q3.28,3.85,7,3.85a5,5,0,0,0,3.37-1.08,3.51,3.51,0,0,0,1.27-2.81A3.1,3.1,0,0,0,218,50.43a15.27,15.27,0,0,0-1.81-1.3q-1.29-.83-3.5-2A16.81,16.81,0,0,1,207.31,43a8.71,8.71,0,0,1-1.51-5.18,9.7,9.7,0,0,1,3.47-7.63,12.91,12.91,0,0,1,8.81-3Q224,27.17,228.95,32Z" fill="none" stroke="#00d2c1" stroke-miterlimit="10" stroke-width="0.88"/></svg>