<svg xmlns="http://www.w3.org/2000/svg" viewBox="0 0 233 83"><title>Artboard 13 copy-logo</title><path d="M14.12,46.26,11.23,69.39H4.13L7.05,46.26H2.42l.8-6.43H7.86L9.53,26.61q.64-5.27,2.93-7.75A8.43,8.43,0,0,1,19,16.38,14.64,14.64,0,0,1,25,18l-.77,6.09a6.13,6.13,0,0,0-3.66-1.57,3.3,3.3,0,0,0-2.86,1.29,12,12,0,0,0-1.32,4.74L15,39.83h6.43l-.8,6.43Z" fill="#1c2b41" stroke="#1c2b41" stroke-miterlimit="10" stroke-width="1.76"/><path d="M36.65,16.38,30,69.39h-7.1l6.69-53Z" fill="#1c2b41" stroke="#1c2b41" stroke-miterlimit="10" stroke-width="1.76"/><path d="M65.07,39.83,62.91,57a34.19,34.19,0,0,1-.64,3.83,18.64,18.64,0,0,1-.84,2.73,9.39,9.39,0,0,1-3,3.74q-3.6,2.76-9.48,2.76-5.59,0-8.93-2.79a9.4,9.4,0,0,1-3.34-7.56q0-.72.08-1.69T37,55.8l2-16h7.1L44,56.43q-.13,1.07-.19,1.87t-.06,1.33q0,4.68,5.63,4.68a5.91,5.91,0,0,0,4.5-1.54q1.45-1.54,1.93-5.4L58,39.83Z" fill="#1c2b41" stroke="#1c2b41" stroke-miterlimit="10" stroke-width="1.76"/><path d="M87.81,53.51l10.9,15.88H90.48L83.31,58.16,66.17,76.54l-9,.09,22.6-23.69-9-13.12h8.13l5.37,8.47L98.57,32.7l8.9.17Z" fill="#1c2b41" stroke="#1c2b41" stroke-miterlimit="10" stroke-width="1.76"/><path d="M124.66,41.89l-3.44,27.5h-8.45l3.48-27.5h-5.5l1-7.65h5.5l2-15.71q.76-6.27,3.48-9.22t7.76-2.95a17.41,17.41,0,0,1,7.15,1.9l-.92,7.24a7.28,7.28,0,0,0-4.36-1.87,3.92,3.92,0,0,0-3.4,1.53,14.2,14.2,0,0,0-1.57,5.63l-1.68,13.43h7.64l-1,7.65Z" fill="none" stroke="#00d2c1" stroke-miterlimit="10" stroke-width="0.93"/><path d="M150.93,6.37l-7.91,63h-8.45l7.95-63Z" fill="none" stroke="#00d2c1" stroke-miterlimit="10" stroke-width="0.93"/><path d="M161.12,54.77a8.24,8.24,0,0,0,2.75,6.38,10.25,10.25,0,0,0,7.11,2.5,10.59,10.59,0,0,0,9.09-4.33l6.3,3.4a19.93,19.93,0,0,1-6.76,6,19.6,19.6,0,0,1-8.79,1.75q-8.37,0-13.34-4.81t-5-12.87A19.53,19.53,0,0,1,158,38.72a18.24,18.24,0,0,1,13.72-5.64q8,0,12.65,5.08t4.7,13.7q0,.89-.11,2.91Zm19.37-6.64Q179.16,40,171.29,40q-7.45,0-9.71,8.13Z" fill="none" stroke="#00d2c1" stroke-miterlimit="10" stroke-width="0.93"/><path d="M215.48,50.51l13,18.88h-9.78L210.13,56,198.51,69.39H187.62l18.27-19.55-10.74-15.6h9.67l6.38,10.08,8.6-10.08h10.78Z" fill="none" stroke="#00d2c1" stroke-miterlimit="10" stroke-width="0.93"/></svg>