<?xml version="1.0" encoding="utf-8"?>
<!-- Generator: Adobe Illustrator 21.0.0, SVG Export Plug-In . SVG Version: 6.00 Build 0)  -->
<svg version="1.1" id="Layer_1" xmlns:svg="http://www.w3.org/2000/svg"
	 xmlns="http://www.w3.org/2000/svg" xmlns:xlink="http://www.w3.org/1999/xlink" x="0px" y="0px" viewBox="0 0 165 38.1"
	 style="enable-background:new 0 0 165 38.1;" xml:space="preserve">
<style type="text/css">
	.st0{fill:#2C3C69;}
	.st1{fill:#F9A11D;}
</style>
<g>
	<title>Layer 1</title>
	<g id="svg_1">
		<g id="svg_2">
			<g id="svg_3">
				<path id="svg_4" class="st0" d="M37,32.9V17.5h3.7v12.1h5.9v3.2L37,32.9L37,32.9z"/>
				<path id="svg_5" class="st0" d="M59,27.6c0,0.1,0,0.3,0,0.4s0,0.3,0,0.4h-7.8c0,0.3,0.1,0.6,0.3,0.8c0.2,0.2,0.3,0.5,0.6,0.6
					c0.2,0.2,0.5,0.3,0.8,0.4c0.3,0.1,0.6,0.2,0.9,0.2c0.6,0,1-0.1,1.4-0.3c0.4-0.2,0.7-0.5,1-0.8l2.5,1.6c-0.5,0.7-1.2,1.3-2,1.7
					c-0.8,0.4-1.8,0.6-2.9,0.6c-0.8,0-1.6-0.1-2.3-0.4c-0.7-0.3-1.4-0.6-1.9-1.1c-0.5-0.5-1-1.1-1.3-1.8c-0.3-0.7-0.5-1.5-0.5-2.4
					c0-0.9,0.2-1.7,0.5-2.4s0.7-1.3,1.2-1.8c0.5-0.5,1.1-0.9,1.8-1.2c0.7-0.3,1.5-0.4,2.3-0.4c0.8,0,1.5,0.1,2.2,0.4
					c0.7,0.3,1.2,0.7,1.7,1.2c0.5,0.5,0.8,1.1,1.1,1.8C58.8,25.9,59,26.7,59,27.6z M55.7,26.3c0-0.6-0.2-1-0.5-1.5
					c-0.4-0.4-0.9-0.6-1.6-0.6c-0.3,0-0.7,0.1-1,0.2c-0.3,0.1-0.5,0.3-0.8,0.4c-0.2,0.2-0.4,0.4-0.5,0.7c-0.1,0.3-0.2,0.5-0.2,0.8
					H55.7z"/>
				<path id="svg_6" class="st0" d="M64.7,24.7v4.1c0,0.5,0.1,0.9,0.3,1.1c0.2,0.3,0.5,0.4,1.1,0.4c0.2,0,0.4,0,0.6,0
					c0.2,0,0.4-0.1,0.5-0.1l0,2.6c-0.2,0.1-0.6,0.2-0.9,0.2c-0.4,0.1-0.8,0.1-1.1,0.1c-0.7,0-1.3-0.1-1.8-0.3
					c-0.5-0.2-0.9-0.4-1.2-0.8c-0.3-0.3-0.5-0.7-0.6-1.2c-0.1-0.5-0.2-1-0.2-1.6v-4.6h-1.7v-2.6h1.7v-2.8h3.5v2.8h2.5v2.6H64.7z"/>
				<path id="svg_7" class="st0" d="M78.7,25.3c-0.3-0.3-0.6-0.5-1-0.7c-0.4-0.2-0.8-0.3-1.2-0.3c-0.3,0-0.6,0.1-0.9,0.2
					c-0.3,0.1-0.4,0.4-0.4,0.7c0,0.3,0.2,0.5,0.5,0.7c0.3,0.1,0.8,0.3,1.5,0.4c0.4,0.1,0.8,0.2,1.2,0.4c0.4,0.2,0.8,0.4,1.1,0.6
					s0.6,0.6,0.8,1c0.2,0.4,0.3,0.8,0.3,1.3c0,0.7-0.1,1.3-0.4,1.7s-0.6,0.8-1.1,1.1c-0.4,0.3-0.9,0.5-1.5,0.6
					c-0.5,0.1-1.1,0.2-1.6,0.2c-0.9,0-1.7-0.1-2.6-0.4c-0.8-0.3-1.6-0.7-2.1-1.2l2-2.1c0.3,0.3,0.7,0.6,1.2,0.9
					c0.5,0.2,1,0.3,1.5,0.3c0.3,0,0.6-0.1,0.9-0.2c0.3-0.1,0.4-0.4,0.4-0.7c0-0.3-0.2-0.6-0.5-0.7c-0.3-0.2-0.9-0.3-1.6-0.5
					c-0.4-0.1-0.8-0.2-1.1-0.3c-0.4-0.1-0.7-0.3-1-0.6c-0.3-0.2-0.5-0.5-0.7-0.9c-0.2-0.4-0.3-0.8-0.3-1.3c0-0.7,0.1-1.2,0.4-1.7
					c0.3-0.5,0.6-0.8,1.1-1.1c0.4-0.3,0.9-0.5,1.4-0.6c0.5-0.1,1.1-0.2,1.6-0.2c0.8,0,1.6,0.1,2.4,0.4c0.8,0.3,1.4,0.6,2,1.1
					L78.7,25.3z"/>
				<path id="svg_8" class="st0" d="M87.4,32.9V17.5h10.3v3.1h-6.7v2.9h6.4v3h-6.4v3.2h7.1v3.2H87.4z"/>
				<path id="svg_9" class="st0" d="M107.5,32.9V27c0-0.3,0-0.6-0.1-0.9c-0.1-0.3-0.1-0.5-0.2-0.7c-0.1-0.2-0.3-0.4-0.5-0.5
					c-0.2-0.1-0.5-0.2-0.8-0.2s-0.6,0.1-0.8,0.2c-0.2,0.1-0.4,0.3-0.6,0.5c-0.2,0.2-0.3,0.5-0.4,0.7c-0.1,0.3-0.1,0.6-0.1,0.9v5.9
					h-3.6V22.1h3.4v1.5h0c0.1-0.2,0.3-0.5,0.5-0.7c0.2-0.2,0.5-0.4,0.7-0.6c0.3-0.2,0.6-0.3,0.9-0.4c0.3-0.1,0.7-0.2,1.1-0.2
					c0.7,0,1.3,0.1,1.8,0.4c0.5,0.3,0.9,0.6,1.2,1c0.3,0.4,0.5,0.9,0.7,1.4c0.1,0.5,0.2,1.1,0.2,1.6v6.7L107.5,32.9L107.5,32.9z"/>
				<path id="svg_10" class="st0" d="M120.2,25.6c-0.2-0.3-0.5-0.5-0.8-0.6c-0.3-0.2-0.7-0.2-1.1-0.2c-0.4,0-0.7,0.1-1,0.2
					c-0.3,0.2-0.6,0.4-0.8,0.6c-0.2,0.3-0.4,0.5-0.5,0.9c-0.1,0.3-0.2,0.7-0.2,1.1c0,0.4,0.1,0.7,0.2,1.1c0.1,0.3,0.3,0.6,0.5,0.9
					c0.2,0.3,0.5,0.5,0.8,0.6c0.3,0.1,0.7,0.2,1.1,0.2c0.4,0,0.7-0.1,1.1-0.2c0.4-0.1,0.6-0.3,0.9-0.6l2,2.4c-0.4,0.4-1,0.8-1.7,1
					c-0.7,0.2-1.5,0.4-2.3,0.4c-0.9,0-1.6-0.1-2.4-0.4c-0.7-0.3-1.4-0.6-1.9-1.1c-0.5-0.5-1-1.1-1.3-1.8c-0.3-0.7-0.5-1.5-0.5-2.4
					c0-0.9,0.2-1.7,0.5-2.4c0.3-0.7,0.7-1.3,1.3-1.8c0.5-0.5,1.2-0.9,1.9-1.1c0.7-0.3,1.5-0.4,2.4-0.4c0.4,0,0.8,0,1.2,0.1
					c0.4,0.1,0.8,0.2,1.1,0.3c0.4,0.1,0.7,0.3,1,0.5c0.3,0.2,0.6,0.4,0.8,0.6L120.2,25.6z"/>
				<path id="svg_11" class="st0" d="M130.6,25c-0.2,0-0.3-0.1-0.5-0.1s-0.3,0-0.4,0c-0.5,0-0.9,0.1-1.2,0.3
					c-0.3,0.2-0.6,0.4-0.8,0.6c-0.2,0.2-0.3,0.5-0.4,0.8c-0.1,0.3-0.1,0.5-0.1,0.8v5.5h-3.6V22.1h3.4v1.6h0c0.3-0.6,0.7-1,1.2-1.4
					c0.5-0.3,1.1-0.5,1.8-0.5c0.1,0,0.3,0,0.4,0c0.1,0,0.2,0,0.3,0.1L130.6,25z"/>
				<path id="svg_12" class="st0" d="M139,34.5c-0.2,0.6-0.5,1.1-0.7,1.5c-0.3,0.4-0.6,0.8-1,1.1c-0.4,0.3-0.8,0.5-1.3,0.7
					c-0.5,0.2-1.1,0.2-1.8,0.2c-0.3,0-0.7,0-1-0.1c-0.4,0-0.7-0.1-0.9-0.2l0.4-3c0.2,0.1,0.4,0.1,0.6,0.1c0.2,0,0.4,0.1,0.6,0.1
					c0.5,0,0.9-0.1,1.2-0.4c0.2-0.3,0.5-0.6,0.6-1.1l0.3-0.9l-4.5-10.6h3.9l2.4,6.9h0.1l2.1-6.9h3.8L139,34.5z"/>
				<path id="svg_13" class="st0" d="M156.8,27.5c0,0.8-0.1,1.5-0.3,2.2c-0.2,0.7-0.6,1.3-1,1.8c-0.4,0.5-1,1-1.6,1.3
					c-0.6,0.3-1.4,0.5-2.2,0.5c-0.7,0-1.3-0.1-1.9-0.4c-0.6-0.3-1.1-0.6-1.4-1.1h0v6.4h-3.6v-16h3.4v1.3h0.1
					c0.3-0.4,0.8-0.8,1.4-1.1c0.6-0.3,1.3-0.5,2.1-0.5c0.8,0,1.5,0.2,2.1,0.5c0.6,0.3,1.2,0.7,1.6,1.2c0.4,0.5,0.8,1.1,1,1.8
					C156.6,26,156.8,26.7,156.8,27.5z M153.3,27.5c0-0.3-0.1-0.7-0.2-1c-0.1-0.3-0.3-0.6-0.5-0.9c-0.2-0.3-0.5-0.5-0.8-0.6
					c-0.3-0.2-0.7-0.2-1.1-0.2c-0.4,0-0.8,0.1-1.1,0.2c-0.3,0.2-0.6,0.4-0.8,0.6c-0.2,0.3-0.4,0.6-0.5,0.9c-0.1,0.3-0.2,0.7-0.2,1
					s0.1,0.7,0.2,1c0.1,0.3,0.3,0.6,0.5,0.9c0.2,0.3,0.5,0.5,0.8,0.6c0.3,0.2,0.7,0.2,1.1,0.2c0.4,0,0.8-0.1,1.1-0.2
					c0.3-0.2,0.6-0.4,0.8-0.6c0.2-0.3,0.4-0.6,0.5-0.9C153.3,28.1,153.3,27.8,153.3,27.5z"/>
				<path id="svg_14" class="st0" d="M162.4,24.7v4.1c0,0.5,0.1,0.9,0.3,1.1c0.2,0.3,0.5,0.4,1.1,0.4c0.2,0,0.4,0,0.6,0
					c0.2,0,0.4-0.1,0.5-0.1l0,2.6c-0.2,0.1-0.6,0.2-0.9,0.2c-0.4,0.1-0.8,0.1-1.1,0.1c-0.7,0-1.3-0.1-1.8-0.3
					c-0.5-0.2-0.9-0.4-1.2-0.8c-0.3-0.3-0.5-0.7-0.6-1.2c-0.1-0.5-0.2-1-0.2-1.6v-4.6h-1.7v-2.6h1.7v-2.8h3.5v2.8h2.5v2.6H162.4z"/>
			</g>
		</g>
		<path id="svg_15" class="st0" d="M70.5,17.2c-1.1,0-1.9,0.8-1.9,1.8c0,1,0.7,1.7,1.8,1.7c0.1,0,0.2,0,0.3,0
			c-0.2,0.8-0.9,1.3-1.6,1.4l-0.1,0v1.7l0.2,0c0.8-0.1,1.7-0.5,2.3-1.1c0.8-0.8,1.2-1.9,1.2-3.2C72.5,18.2,71.6,17.2,70.5,17.2z"/>
	</g>
	<g id="svg_16">
		<path id="svg_17" class="st1" d="M22.3,17.6h-3.9v-2c0-1.6-1.3-2.9-2.9-2.9s-2.9,1.3-2.9,2.9v2H8.6v-2c0-3.8,3.1-6.9,6.9-6.9
			s6.9,3.1,6.9,6.9L22.3,17.6L22.3,17.6z"/>
	</g>
	<path id="svg_18" class="st0" d="M23.9,17.6H7c-0.7,0-1.3,0.6-1.3,1.3v12.5c0,0.7,0.6,1.3,1.3,1.3h16.9c0.7,0,1.3-0.6,1.3-1.3V18.9
		C25.2,18.2,24.6,17.6,23.9,17.6z M16.3,25.8v1.7c0,0.5-0.4,0.9-0.9,0.9s-0.9-0.4-0.9-0.9v-1.7c-0.5-0.3-0.9-0.9-0.9-1.5
		c0-1,0.8-1.7,1.7-1.7c1,0,1.7,0.8,1.7,1.7C17.2,24.9,16.8,25.5,16.3,25.8z"/>
	<path id="svg_19" class="st1" d="M5.3,15.7H1.2c-0.7,0-1.2-0.5-1.2-1.2c0-0.7,0.5-1.2,1.2-1.2h4.1c0.7,0,1.2,0.5,1.2,1.2
		C6.5,15.2,5.9,15.7,5.3,15.7z"/>
	<path id="svg_20" class="st1" d="M8.1,9.3C7.9,9.3,7.6,9.2,7.4,9L4.2,6.4C3.6,6,3.6,5.2,4,4.7c0.4-0.5,1.2-0.6,1.7-0.2l3.2,2.6
		c0.5,0.4,0.6,1.2,0.2,1.7C8.8,9.2,8.5,9.3,8.1,9.3z"/>
	<path id="svg_21" class="st1" d="M15.4,6.5c-0.7,0-1.2-0.5-1.2-1.2V1.2c0-0.7,0.5-1.2,1.2-1.2c0.7,0,1.2,0.5,1.2,1.2v4.1
		C16.6,6,16.1,6.5,15.4,6.5z"/>
	<g id="svg_22">
		<g id="svg_23">
			<path id="svg_24" class="st1" d="M22.7,9.3c-0.3,0-0.7-0.1-0.9-0.4c-0.4-0.5-0.3-1.3,0.2-1.7l3.2-2.6c0.5-0.4,1.3-0.3,1.7,0.2
				c0.4,0.5,0.3,1.3-0.2,1.7L23.5,9C23.2,9.2,23,9.3,22.7,9.3z"/>
		</g>
	</g>
	<path id="svg_25" class="st1" d="M29.6,15.7h-4.1c-0.7,0-1.2-0.5-1.2-1.2c0-0.7,0.5-1.2,1.2-1.2h4.1c0.7,0,1.2,0.5,1.2,1.2
		C30.8,15.2,30.3,15.7,29.6,15.7z"/>
</g>
</svg>
