<svg xmlns="http://www.w3.org/2000/svg" xmlns:xlink="http://www.w3.org/1999/xlink" xmlns:fi="http://pattern.flaticon.com/" x="0" y="0" width="1000" height="500" viewBox="0 0 1310.8614232209736 655.4307116104868"><rect x="0px" y="0px" width="100%" height="100%" opacity="1" fill="#ecebe7"/><defs><g transform="matrix(0.22608725921308417 -0.08289865956163409 0.08289865956163409 0.22608725921308417 320.0845807583866 250.00365966955368)" id="L1_0"><path d="M85.889,49.632c0.704-1.241,1.056-2.685,1.056-4.32c0-2.596-0.955-4.565-2.864-5.913    c-1.098-0.788-2.942-1.533-5.531-2.238v16.355C82.094,53.356,84.535,52.061,85.889,49.632z" fill="#00d1c0"/><path d="M75.591,16.14c-2.739,0.107-4.69,0.931-5.848,2.488c-1.164,1.557-1.742,3.18-1.742,4.881    c0,2.053,0.686,3.658,2.053,4.821c1.372,1.158,3.222,1.969,5.537,2.423V16.14z" fill="#00d1c0"/><path d="M77.041,71.495c19.744,0,35.742-16.003,35.742-35.748S96.785,0,77.041,0    S41.293,16.003,41.293,35.748C41.293,55.492,57.296,71.495,77.041,71.495z M65.626,32.155c-2.148-1.987-3.222-4.75-3.222-8.27    c0-3.151,1.152-5.991,3.467-8.521c2.315-2.524,5.549-3.813,9.72-3.855V7.375h2.954v4.075c4.123,0.292,7.292,1.504,9.499,3.646    c2.208,2.142,3.359,4.97,3.473,8.485h-5.448c-0.137-1.575-0.567-2.936-1.271-4.075c-1.307-2.094-3.389-3.192-6.247-3.3v15.15    c4.809,1.349,8.073,2.613,9.798,3.789c2.798,1.951,4.195,4.833,4.195,8.646c0,5.519-1.796,9.434-5.376,11.755    c-1.987,1.283-4.857,2.13-8.61,2.554v6.033h-2.954v-6.033c-6.033-0.394-10.126-2.53-12.286-6.408    c-1.181-2.094-1.772-4.923-1.772-8.485h5.501c0.167,2.84,0.615,4.911,1.343,6.217c1.295,2.345,3.699,3.658,7.208,3.95V36.428    C71.092,35.563,67.768,34.148,65.626,32.155z" fill="#00d1c0"/><path d="M182.248,145.663c3.741-3.902,4.087-11.152,3.473-20.836c-4.41-0.292-10.901,0.436-13.193,0    c-5.579-11.086-13.587-19.75-25.001-25.001c0.388-7.238,1.366-13.909,5.555-17.358c-10.185-0.698-18.802,6.188-24.297,12.501    c-20.568-21.373-81.692-25.174-111.109,5.555c-5.072-0.382-4.493-10.681,2.082-9.028c-10.722-7.303-16.63,12.715-6.247,15.275    c-8.652,12.345-9.469,38.874,2.082,48.606c1.689,14.625,4.272,28.349,11.385,37.55h23.342c-0.615-4.738-1.229-9.804-0.698-15.323    c14.177,3.21,31.01,4.153,47.914,2.775c2.602,4.338,5.132,8.73,8.234,12.554h23.104c-0.841-6.11-1.76-12.524-0.095-18.802    C134.299,173.063,162.922,165.801,182.248,145.663z M150.367,114.665c3.162,0,5.74,2.572,5.74,5.74s-2.578,5.746-5.74,5.746    c-3.168,0-5.746-2.578-5.746-5.746S147.199,114.665,150.367,114.665z M102.603,92.403c-15.89-5.478-33.349-5.424-49.161,0.167    l-1.802-3.717c16.958-5.997,35.682-6.062,52.729-0.179L102.603,92.403z" fill="#00d1c0"/></g><g transform="matrix(0.23111824311005746 0.12018148828921232 -0.12018148828921232 0.23111824311005746 124.07055169349461 168.55829045958487)" id="L1_1"><path d="M70.763,39.134h37.436c1.462,0,2.643-1.134,2.643-2.524s-1.181-2.518-2.643-2.518H70.763    c-1.45,0-2.637,1.128-2.637,2.518C68.125,38,69.313,39.134,70.763,39.134z" fill="#00d1c0"/><path d="M104.326,30.238c1.748-9.237,8.336-21.881,8.336-21.881S84.851-4.323,78.394,1.555    c-2.608,2.369,3.801,11.409,1.426,14.028c-2.255,2.506-13.521,0-13.521,0s4.338,7.858,6.367,14.655H104.326z" fill="#00d1c0"/><g><path d="M109.362,42.869c-0.37,0.066-0.764,0.113-1.152,0.113h-37.43c-0.668,0-1.307-0.131-1.915-0.316     c-26.004,24.763-40.109,61.918-40.109,84.324c-0.006,28.725,29.315,52.013,60.743,52.013s60.749-23.289,60.749-52.013     C150.247,104.322,135.724,70.621,109.362,42.869z M89.493,145.995c-16.695,0-30.228-13.539-30.228-30.24     c0-16.695,13.545-30.228,30.228-30.228s30.228,13.539,30.228,30.228C119.721,132.456,106.188,145.995,89.493,145.995z" fill="#00d1c0"/><path d="M99.064,115.236c-1.468-0.996-4.219-2.071-8.294-3.21V99.226c2.417,0.09,4.183,1.014,5.299,2.787     c0.591,0.967,0.943,2.112,1.08,3.443h4.6c-0.089-2.971-1.062-5.364-2.936-7.178c-1.862-1.808-4.541-2.84-8.031-3.085V91.75h-2.5     v3.497c-3.526,0.036-6.259,1.122-8.216,3.264s-2.936,4.541-2.936,7.208c0,2.983,0.907,5.316,2.721,6.999     c1.82,1.683,4.624,2.882,8.431,3.604v14.326c-2.966-0.251-5-1.36-6.092-3.341c-0.621-1.11-1.002-2.858-1.128-5.257h-4.666     c0,3.013,0.507,5.4,1.51,7.178c1.82,3.282,5.293,5.084,10.382,5.412v5.102h2.5v-5.102c3.174-0.352,5.597-1.068,7.292-2.154     c3.031-1.963,4.553-5.281,4.553-9.941C102.602,119.329,101.421,116.888,99.064,115.236z M88.27,111.53     c-1.963-0.382-3.526-1.074-4.672-2.053c-1.164-0.985-1.748-2.345-1.748-4.081c0-1.438,0.501-2.822,1.474-4.129     c0.985-1.313,2.631-2.017,4.947-2.1L88.27,111.53L88.27,111.53z M96.969,127.497c-1.122,2.053-3.204,3.145-6.2,3.288v-13.837     c2.19,0.603,3.753,1.229,4.678,1.891c1.617,1.14,2.411,2.81,2.411,5C97.858,125.224,97.572,126.441,96.969,127.497z" fill="#00d1c0"/></g></g><path d="M489.676,138.714c-0.2-0.376-5-9.314-14.242-18.341c-12.355-12.068-26.794-18.447-41.755-18.447  c-7.993,0-16.194,1.78-24.528,5.313c2.51-2.207,5.296-4.541,8.328-6.912c13.121-10.259,33.609-23.277,56.707-27.033  c1.197-0.195,2.13-1.145,2.303-2.346c0.172-1.201-0.456-2.375-1.55-2.898c-0.745-0.356-18.483-8.729-39.616-8.729  c-20.957,0-47.989,8.464-60.727,47.654c-1.759-2.531-4.249-5.624-7.587-8.719c-7.049-6.532-19.381-14.32-38.109-14.32  c-14.379,0-30.551,4.561-48.067,13.556c-1.092,0.561-1.686,1.771-1.461,2.978c0.226,1.207,1.216,2.122,2.436,2.252  c0.126,0.014,12.723,1.393,27.245,6.217c12.148,4.035,27.996,11.313,37.191,23.523c-2.914,0.816-7.169,2.216-12.021,4.47  c-8.232,3.823-19.816,10.943-28.252,23.151c-10.706,15.494-13.913,35.238-9.533,58.684c0.212,1.132,1.1,2.016,2.232,2.222  c1.133,0.206,2.275-0.309,2.871-1.293c0.248-0.41,23.061-37.725,46.623-49.977c-2.263,5.234-5.013,13.101-6.071,22.229  c-1.118,9.652-0.099,18.701,3.032,26.895c3.913,10.24,11.121,19.101,21.426,26.334c0.476,0.334,1.034,0.504,1.595,0.504  c0.432,0,0.864-0.102,1.263-0.305c0.916-0.468,1.498-1.404,1.513-2.434c0.003-0.185,0.286-18.783,2.769-39.558  c2.065-17.293,5.023-31.023,8.718-40.688c5.351,11.815,11.827,26.998,14.773,37.315c5.579,19.538,8.387,39.223,8.415,58.404  c-10.027,4.482-31.301,13.723-56.053,22.874c-45.152,16.694-81.302,25.518-104.541,25.518c-23.239,0-59.389-8.823-104.541-25.518  c-24.752-9.151-46.025-18.392-56.052-22.874c0.028-19.182,2.835-38.867,8.414-58.404c2.945-10.314,9.423-25.498,14.773-37.314  c3.69,9.656,6.646,23.369,8.713,40.64c2.485,20.777,2.771,39.419,2.773,39.604c0.015,1.029,0.597,1.966,1.513,2.434  c0.398,0.203,0.831,0.305,1.263,0.305c0.561,0,1.119-0.17,1.595-0.504c10.305-7.233,17.513-16.094,21.426-26.334  c3.131-8.193,4.15-17.242,3.032-26.895c-1.059-9.129-3.809-16.995-6.071-22.229c23.563,12.252,46.375,49.566,46.623,49.977  c0.597,0.985,1.739,1.499,2.872,1.293c1.132-0.206,2.02-1.09,2.231-2.222c4.38-23.445,1.173-43.189-9.533-58.684  c-8.436-12.208-20.02-19.328-28.252-23.151c-4.853-2.254-9.107-3.653-12.021-4.47c9.195-12.211,25.043-19.488,37.191-23.523  c14.523-4.824,27.119-6.203,27.244-6.217c1.221-0.129,2.211-1.045,2.437-2.251c0.226-1.206-0.369-2.418-1.461-2.979  c-17.517-8.995-33.688-13.556-48.067-13.556c-18.729,0-31.061,7.788-38.109,14.32c-3.338,3.095-5.828,6.188-7.587,8.719  C102.668,67.784,75.635,59.32,54.678,59.32c-21.133,0-38.871,8.372-39.616,8.729c-1.094,0.523-1.722,1.697-1.549,2.898  c0.172,1.201,1.104,2.15,2.302,2.346c23.055,3.75,43.509,16.729,56.607,26.955c3.068,2.396,5.888,4.757,8.425,6.989  c-8.333-3.532-16.534-5.312-24.525-5.312c-14.961,0-29.399,6.379-41.755,18.447C5.324,129.4,0.525,138.338,0.324,138.714  c-0.509,0.959-0.413,2.126,0.246,2.989c0.659,0.861,1.761,1.261,2.819,1.021c18.037-4.09,34.521-6.162,48.993-6.162  c19.682,0,31.975,3.713,39.326,7.398c-7.176,9.498-18.623,27.597-30.49,58.279c-14.813,38.3-19.266,77.521-12.877,113.424  c7.811,43.906,28.209,85.445,55.965,113.966c0.652,0.671,1.55,1.05,2.486,1.05h58.464c1.452,0,2.751-0.904,3.255-2.267  s0.105-2.894-0.998-3.839c-27.708-23.732-69.08-88.088-77.678-120.827c-2.681-10.684-4.361-21.735-5.06-33.015  c1.7,1.65,3.531,3.446,5.479,5.357c15.058,14.767,37.813,37.081,64.374,55.604c14.669,10.229,28.997,18.222,42.587,23.756  c16.094,6.555,31.668,9.877,46.288,9.877c0.502,0,0.994-0.004,1.495-0.011c0.498,0.007,0.998,0.011,1.495,0.011  c14.621,0,30.195-3.322,46.29-9.877c13.59-5.533,27.917-13.525,42.586-23.756c26.56-18.522,49.315-40.837,64.372-55.604  c1.948-1.91,3.78-3.707,5.48-5.357c-0.698,11.277-2.378,22.328-5.06,33.012c-8.597,32.738-49.97,97.099-77.678,120.83  c-1.104,0.945-1.502,2.477-0.998,3.839c0.504,1.362,1.803,2.267,3.255,2.267h58.464c0.936,0,1.834-0.379,2.486-1.05  c27.756-28.521,48.154-70.06,55.965-113.966c6.389-35.903,1.935-75.125-12.877-113.424c-11.867-30.683-23.314-48.781-30.49-58.279  c7.352-3.686,19.645-7.398,39.326-7.398c14.473,0,30.957,2.072,48.993,6.162c1.059,0.239,2.16-0.16,2.819-1.021  C490.089,140.84,490.185,139.673,489.676,138.714z" transform="matrix(0.12244898080825806 0 0 0.12244898080825806 184 291.0000039012674)" id="L1_2" fill="#00d4c2"/><path d="M8.804,21.415h3.713v-2.68c2.715-0.657,4.389-2.542,4.389-5.045l0,0   c0-2.562-1.361-4.131-4.551-5.247l0,0C11.184,8.017,9.83,7.459,9.83,6.959l0,0c0-0.657,0.923-0.758,1.472-0.758l0,0   c1.605,0,2.632,0.494,3.247,0.789l0,0l0.706,0.338l0.224-0.744l0.88-3.309L15.87,3.044c-0.651-0.306-1.692-0.689-3.229-0.82l0,0V0   H8.928v2.488C6.35,3.158,4.761,4.983,4.761,7.379l0,0c0,3.089,2.607,4.361,4.879,5.127l0,0c1.93,0.651,2.197,1.121,2.197,1.53l0,0   c0,0.608-0.876,0.88-1.744,0.88l0,0c-1.691,0-3.097-0.63-3.782-1.006l0,0l-0.732-0.4l-1.07,4.179v0.001l0.439,0.242   c0.99,0.548,2.45,0.934,3.856,1.061l0,0V21.415z" transform="matrix(2.0503418204534056 1.148191449728772 -1.148191449728772 2.0503418204534056 270.1019649894055 99.5957779501707)" fill="#00d1c0" id="L1_4"/><g transform="matrix(0.07846340357453567 -0.039231703251534154 0.039231703251534154 0.07846340357453567 29.98529780296095 57.995100192899855)" id="L1_5"><path d="M587.52,122.4 24.48,122.4 24.48,146.88 587.52,146.88 587.52,465.12 612,465.12 612,146.88 612,122.4z" fill="#00d4c2"/><path d="M304.054,344.789c-2.283-1.61-5.777-2.821-10.502-3.648v21.114c9.29-1.2,13.929-4.645,13.929-10.337    C307.481,348.779,306.337,346.41,304.054,344.789z" fill="#00d4c2"/><path d="M281.52,218.411c-50.698,0-91.8,49.321-91.8,110.16s41.102,110.16,91.8,110.16s91.8-49.321,91.8-110.16    S332.218,218.411,281.52,218.411z M322.132,374.042c-6.701,5.471-16.218,8.874-28.58,10.22v11.567H275.7v-11.004    c-7.338-0.226-14.241-0.881-20.716-1.965c-6.481-1.083-11.848-2.601-16.114-4.547v-22.008c2.919,1.047,5.759,1.958,8.531,2.748    s5.618,1.463,8.544,2.02c2.919,0.563,5.991,1.01,9.204,1.353c3.213,0.337,6.744,0.545,10.557,0.618v-24.59    c-4.719-0.679-9.394-1.597-14.033-2.754c-4.645-1.157-8.819-2.901-12.522-5.226c-3.709-2.319-6.726-5.386-9.045-9.204    s-3.476-8.758-3.476-14.829c0-4.939,0.894-9.333,2.693-13.182c1.793-3.862,4.382-7.191,7.748-10    c3.372-2.803,7.473-5.073,12.295-6.793c4.835-1.72,10.282-2.919,16.34-3.592v-11.567h17.852v11.23    c5.465,0.3,11.028,0.912,16.683,1.848c5.649,0.936,10.839,2.234,15.551,3.88v22.234c-11.53-3.745-22.277-5.838-32.234-6.285    v24.927c4.719,0.747,9.382,1.738,13.978,2.974c4.608,1.23,8.727,3.029,12.356,5.392c3.629,2.356,6.585,5.447,8.862,9.26    c2.283,3.819,3.433,8.727,3.433,14.712C332.181,361.056,328.828,368.583,322.132,374.042z" fill="#00d4c2"/><path d="M261.22,305.327c0,3.146,1.193,5.539,3.592,7.191c2.399,1.646,6.022,2.919,10.887,3.813v-21.555    c-5.471,0.6-9.247,1.812-11.34,3.648C262.26,300.253,261.22,302.561,261.22,305.327z" fill="#00d4c2"/><path d="M459.055,171.36h-348.95H87.938H0v89.468v18.501v104.346v17.987V489.6h87.938h22.167h348.95h14.517h89.468v-87.938    v-17.987V279.329v-18.501V171.36h-89.468H459.055z M538.56,275.773v111.457c-37.65,10.006-67.094,39.945-76.384,77.889H106.978    c-9.786-39.994-41.922-71.212-82.498-79.45V277.328c41.267-8.378,73.85-40.514,83.018-81.488h354.158    C470.365,234.751,500.224,265.584,538.56,275.773z" fill="#00d4c2"/><circle cx="124" cy="327" r="33" fill="#00d4c2"/><circle cx="443" cy="327" r="33" fill="#00d4c2"/></g></defs><g fi:class="KUsePattern" opacity="0.2"><pattern id="pattern_L1_0" width="350" height="350" patternUnits="userSpaceOnUse"><use xlink:href="#L1_0" x="-350" y="-350"/><use xlink:href="#L1_0" x="0" y="-350"/><use xlink:href="#L1_0" x="350" y="-350"/><use xlink:href="#L1_0" x="-350" y="0"/><use xlink:href="#L1_0" x="0" y="0"/><use xlink:href="#L1_0" x="350" y="0"/><use xlink:href="#L1_0" x="-350" y="350"/><use xlink:href="#L1_0" x="0" y="350"/><use xlink:href="#L1_0" x="350" y="350"/></pattern><rect x="0" y="0" width="100%" height="100%" fill="url(#pattern_L1_0)"/></g><g fi:class="KUsePattern" opacity="0.2"><pattern id="pattern_L1_1" width="350" height="350" patternUnits="userSpaceOnUse"><use xlink:href="#L1_1" x="-350" y="-350"/><use xlink:href="#L1_1" x="0" y="-350"/><use xlink:href="#L1_1" x="350" y="-350"/><use xlink:href="#L1_1" x="-350" y="0"/><use xlink:href="#L1_1" x="0" y="0"/><use xlink:href="#L1_1" x="350" y="0"/><use xlink:href="#L1_1" x="-350" y="350"/><use xlink:href="#L1_1" x="0" y="350"/><use xlink:href="#L1_1" x="350" y="350"/></pattern><rect x="0" y="0" width="100%" height="100%" fill="url(#pattern_L1_1)"/></g><g fi:class="KUsePattern" opacity="0.2"><pattern id="pattern_L1_2" width="350" height="350" patternUnits="userSpaceOnUse"><use xlink:href="#L1_2" x="-350" y="-350"/><use xlink:href="#L1_2" x="0" y="-350"/><use xlink:href="#L1_2" x="350" y="-350"/><use xlink:href="#L1_2" x="-350" y="0"/><use xlink:href="#L1_2" x="0" y="0"/><use xlink:href="#L1_2" x="350" y="0"/><use xlink:href="#L1_2" x="-350" y="350"/><use xlink:href="#L1_2" x="0" y="350"/><use xlink:href="#L1_2" x="350" y="350"/></pattern><rect x="0" y="0" width="100%" height="100%" fill="url(#pattern_L1_2)"/></g><g fi:class="KUsePattern" opacity="0.2"><pattern id="pattern_L1_4" width="350" height="350" patternUnits="userSpaceOnUse"><use xlink:href="#L1_4" x="-350" y="-350"/><use xlink:href="#L1_4" x="0" y="-350"/><use xlink:href="#L1_4" x="350" y="-350"/><use xlink:href="#L1_4" x="-350" y="0"/><use xlink:href="#L1_4" x="0" y="0"/><use xlink:href="#L1_4" x="350" y="0"/><use xlink:href="#L1_4" x="-350" y="350"/><use xlink:href="#L1_4" x="0" y="350"/><use xlink:href="#L1_4" x="350" y="350"/></pattern><rect x="0" y="0" width="100%" height="100%" fill="url(#pattern_L1_4)"/></g><g fi:class="KUsePattern" opacity="0.2"><pattern id="pattern_L1_5" width="350" height="350" patternUnits="userSpaceOnUse"><use xlink:href="#L1_5" x="-350" y="-350"/><use xlink:href="#L1_5" x="0" y="-350"/><use xlink:href="#L1_5" x="350" y="-350"/><use xlink:href="#L1_5" x="-350" y="0"/><use xlink:href="#L1_5" x="0" y="0"/><use xlink:href="#L1_5" x="350" y="0"/><use xlink:href="#L1_5" x="-350" y="350"/><use xlink:href="#L1_5" x="0" y="350"/><use xlink:href="#L1_5" x="350" y="350"/></pattern><rect x="0" y="0" width="100%" height="100%" fill="url(#pattern_L1_5)"/></g></svg>